<svg xmlns="http://www.w3.org/2000/svg" width="1338" height="195" fill="none" viewBox="0 0 1338 195"><path stroke="#fff" stroke-linecap="round" stroke-width="12" d="M25 97.853 92.882 29.97c9.373-9.373 24.569-9.373 33.941 0v0c9.373 9.372 9.373 24.568 0 33.94l-51.265 51.266M76.265 114.47l50.558-50.558c9.373-9.373 24.569-9.373 33.942 0l.353.353c9.373 9.373 9.373 24.569 0 33.941L99.725 159.6a8 8 0 0 0 0 11.313l12.606 12.607"/><path stroke="#fff" stroke-linecap="round" stroke-width="12" d="M109.853 46.941 59.648 97.146c-9.372 9.372-9.372 24.568 0 33.941v0c9.373 9.372 24.569 9.372 33.941 0l50.205-50.205"/><path fill="#fff" d="M223.886 63.182h15.478l20.727 50.591h.818l20.727-50.591h15.478V133h-12.137V85.034h-.647l-19.296 47.761h-9.068L236.67 84.932h-.647V133h-12.137zm109.296 70.841q-7.671 0-13.296-3.375t-8.727-9.443q-3.068-6.069-3.068-14.182 0-8.114 3.068-14.216 3.102-6.102 8.727-9.478 5.625-3.374 13.296-3.374t13.295 3.374q5.625 3.375 8.693 9.478 3.103 6.102 3.103 14.216t-3.103 14.182q-3.068 6.068-8.693 9.443t-13.295 3.375m.068-9.887q4.16 0 6.955-2.284 2.795-2.318 4.159-6.204 1.397-3.887 1.397-8.659 0-4.808-1.397-8.693-1.364-3.921-4.159-6.24-2.796-2.317-6.955-2.317-4.262 0-7.091 2.318-2.796 2.318-4.193 6.239-1.364 3.885-1.364 8.693 0 4.772 1.364 8.659 1.398 3.887 4.193 6.204 2.83 2.284 7.091 2.284m54.929 9.784q-6.17 0-11.045-3.17-4.876-3.17-7.705-9.205-2.83-6.034-2.83-14.659 0-8.727 2.864-14.727 2.898-6.035 7.807-9.102 4.909-3.102 10.943-3.103 4.602 0 7.568 1.569 2.967 1.534 4.705 3.716 1.739 2.147 2.693 4.057h.511V63.182h12.375V133h-12.136v-8.25h-.75q-.954 1.91-2.761 4.057-1.808 2.113-4.773 3.613-2.966 1.5-7.466 1.5m3.443-10.125q3.92 0 6.682-2.113 2.762-2.148 4.193-5.966 1.432-3.818 1.432-8.898 0-5.079-1.432-8.83-1.398-3.75-4.159-5.829-2.727-2.08-6.716-2.08-4.125 0-6.886 2.148t-4.159 5.932-1.398 8.659q0 4.909 1.398 8.762 1.431 3.817 4.193 6.034 2.796 2.181 6.852 2.181m60.776 10.228q-7.875 0-13.603-3.273-5.692-3.307-8.761-9.341-3.068-6.068-3.068-14.284 0-8.08 3.068-14.182 3.102-6.135 8.659-9.545 5.557-3.443 13.057-3.443 4.841 0 9.136 1.568a20.65 20.65 0 0 1 7.637 4.773q3.34 3.237 5.25 8.25 1.909 4.977 1.909 11.863v3.784h-42.921v-8.318h31.091q-.034-3.546-1.534-6.307-1.5-2.796-4.193-4.397-2.66-1.603-6.205-1.603-3.783 0-6.647 1.841a12.7 12.7 0 0 0-4.466 4.773q-1.569 2.931-1.602 6.443v7.261q0 4.569 1.67 7.841 1.67 3.238 4.67 4.978 3 1.704 7.023 1.704 2.694 0 4.875-.75 2.182-.784 3.784-2.284t2.421-3.716l11.522 1.296q-1.09 4.567-4.159 7.977-3.033 3.375-7.772 5.25-4.739 1.84-10.841 1.841m46.065-70.841V133h-12.341V63.182zm96.81 23.557h-12.75q-.546-3.136-2.012-5.557a15 15 0 0 0-3.647-4.16q-2.182-1.704-4.978-2.556-2.761-.886-5.966-.886-5.693 0-10.09 2.863-4.398 2.83-6.887 8.318-2.488 5.455-2.488 13.33 0 8.011 2.488 13.5 2.523 5.454 6.887 8.25 4.397 2.761 10.056 2.761 3.137 0 5.864-.818 2.762-.852 4.943-2.489a14.6 14.6 0 0 0 3.716-4.022q1.534-2.386 2.114-5.455l12.75.068a27.5 27.5 0 0 1-3.103 9.341q-2.352 4.364-6.17 7.705-3.818 3.306-8.932 5.182-5.113 1.84-11.352 1.841-9.204 0-16.432-4.262t-11.386-12.307q-4.16-8.045-4.159-19.295 0-11.285 4.193-19.295 4.193-8.047 11.42-12.307 7.227-4.262 16.364-4.262 5.83 0 10.841 1.637 5.011 1.636 8.932 4.807 3.92 3.135 6.443 7.704 2.556 4.534 3.341 10.364m33.878 47.284q-7.671 0-13.296-3.375t-8.727-9.443q-3.068-6.069-3.068-14.182 0-8.114 3.068-14.216 3.102-6.102 8.727-9.478 5.625-3.374 13.296-3.374t13.295 3.374q5.625 3.375 8.693 9.478 3.102 6.102 3.102 14.216t-3.102 14.182q-3.068 6.068-8.693 9.443t-13.295 3.375m.068-9.887q4.159 0 6.954-2.284 2.796-2.318 4.159-6.204 1.398-3.887 1.398-8.659 0-4.808-1.398-8.693-1.363-3.921-4.159-6.24-2.795-2.317-6.954-2.317-4.262 0-7.091 2.318-2.796 2.318-4.193 6.239-1.364 3.885-1.364 8.693 0 4.772 1.364 8.659 1.397 3.887 4.193 6.204 2.83 2.284 7.091 2.284m47.838-21.818V133h-12.341V80.636h11.795v8.898h.614q1.807-4.398 5.761-6.989 3.989-2.59 9.853-2.59 5.42 0 9.443 2.318 4.056 2.318 6.273 6.716 2.25 4.397 2.215 10.67V133h-12.34v-31.432q0-5.25-2.728-8.216-2.693-2.966-7.466-2.966-3.238 0-5.761 1.432-2.489 1.398-3.92 4.057-1.398 2.659-1.398 6.443m72.307-21.682v9.546h-30.103v-9.546zm-22.671-12.545h12.341v49.159q0 2.489.75 3.818.785 1.296 2.046 1.773t2.795.477q1.159 0 2.114-.17a19 19 0 0 0 1.5-.307l2.079 9.648q-.988.34-2.829.75-1.807.408-4.432.477-4.636.137-8.352-1.398-3.717-1.568-5.898-4.841-2.148-3.273-2.114-8.182zm55.611 65.932q-7.875 0-13.602-3.273-5.694-3.307-8.762-9.341-3.068-6.068-3.068-14.284 0-8.08 3.068-14.182 3.103-6.135 8.659-9.545 5.557-3.443 13.057-3.443 4.841 0 9.137 1.568a20.66 20.66 0 0 1 7.636 4.773q3.34 3.237 5.25 8.25 1.91 4.977 1.909 11.863v3.784h-42.92v-8.318h31.091q-.035-3.546-1.535-6.307-1.5-2.796-4.193-4.397-2.659-1.603-6.204-1.603-3.784 0-6.648 1.841a12.7 12.7 0 0 0-4.466 4.773q-1.567 2.931-1.602 6.443v7.261q0 4.569 1.67 7.841 1.671 3.238 4.671 4.978 3 1.704 7.022 1.704 2.694 0 4.875-.75 2.182-.784 3.785-2.284 1.602-1.5 2.42-3.716l11.523 1.296q-1.092 4.567-4.159 7.977-3.035 3.375-7.773 5.25-4.739 1.84-10.841 1.841m42.69-53.387 10.568 19.33 10.739-19.33h13.057l-15.784 26.182L859.631 133h-12.989l-11.08-18.852L824.585 133h-13.091l15.955-26.182-15.546-26.182zm70.057 0v9.546h-30.102v-9.546zm-22.67-12.545h12.341v49.159q0 2.489.75 3.818.783 1.296 2.045 1.773t2.795.477q1.16 0 2.114-.17a19 19 0 0 0 1.5-.307l2.08 9.648q-.989.34-2.83.75-1.807.408-4.432.477-4.637.137-8.352-1.398-3.716-1.568-5.898-4.841-2.147-3.273-2.113-8.182zM929.73 133V63.182h26.182q8.046 0 13.5 3 5.488 3 8.284 8.25 2.83 5.216 2.83 11.864 0 6.716-2.83 11.931-2.829 5.216-8.352 8.216-5.523 2.966-13.603 2.966h-17.352V99.011h15.648q4.704 0 7.704-1.636t4.432-4.5q1.466-2.864 1.466-6.58t-1.466-6.545q-1.431-2.829-4.466-4.398-3-1.602-7.738-1.602h-11.591V133zm61.236 0V80.636h11.964v8.728h.55c.95-3.023 2.59-5.353 4.91-6.989q3.51-2.49 8.01-2.489 1.02 0 2.28.103c.87.045 1.58.125 2.15.238V91.58q-.78-.272-2.49-.477a23 23 0 0 0-3.24-.238c-2.25 0-4.27.488-6.07 1.465-1.77.955-3.17 2.285-4.19 3.99q-1.53 2.556-1.53 5.897V133zm58.744 1.023q-7.665 0-13.29-3.375t-8.73-9.443c-2.05-4.046-3.07-8.773-3.07-14.182s1.02-10.148 3.07-14.216q3.105-6.102 8.73-9.478 5.625-3.374 13.29-3.374c5.12 0 9.55 1.124 13.3 3.374s6.65 5.41 8.69 9.478c2.07 4.068 3.1 8.807 3.1 14.216s-1.03 10.136-3.1 14.182c-2.04 4.045-4.94 7.193-8.69 9.443s-8.18 3.375-13.3 3.375m.07-9.887q4.155 0 6.96-2.284c1.86-1.545 3.25-3.613 4.15-6.204.94-2.591 1.4-5.478 1.4-8.659 0-3.205-.46-6.103-1.4-8.693-.9-2.614-2.29-4.694-4.15-6.24q-2.805-2.317-6.96-2.317c-2.84 0-5.2.772-7.09 2.318-1.86 1.545-3.26 3.625-4.19 6.239-.91 2.59-1.37 5.488-1.37 8.693 0 3.181.46 6.068 1.37 8.659.93 2.591 2.33 4.659 4.19 6.204 1.89 1.523 4.25 2.284 7.09 2.284m61.65-43.5v9.546h-30.11v-9.546zm-22.67-12.545h12.34v49.159q0 2.489.75 3.818.78 1.296 2.04 1.773c.84.318 1.77.477 2.8.477.77 0 1.47-.057 2.11-.17q.99-.17 1.5-.307l2.08 9.648c-.66.227-1.6.477-2.83.75-1.2.272-2.68.431-4.43.477-3.09.091-5.88-.375-8.35-1.398-2.48-1.045-4.45-2.659-5.9-4.841-1.43-2.182-2.14-4.909-2.11-8.182zm55.27 65.932c-5.12 0-9.55-1.125-13.3-3.375q-5.625-3.375-8.73-9.443c-2.04-4.046-3.07-8.773-3.07-14.182s1.03-10.148 3.07-14.216q3.105-6.102 8.73-9.478c3.75-2.25 8.18-3.374 13.3-3.374q7.665 0 13.29 3.374c3.75 2.25 6.65 5.41 8.69 9.478 2.07 4.068 3.11 8.807 3.11 14.216s-1.04 10.136-3.11 14.182c-2.04 4.045-4.94 7.193-8.69 9.443q-5.625 3.375-13.29 3.375m.06-9.887c2.78 0 5.09-.761 6.96-2.284 1.86-1.545 3.25-3.613 4.16-6.204.93-2.591 1.4-5.478 1.4-8.659 0-3.205-.47-6.103-1.4-8.693-.91-2.614-2.3-4.694-4.16-6.24-1.87-1.545-4.18-2.317-6.96-2.317-2.84 0-5.2.772-7.09 2.318-1.86 1.545-3.26 3.625-4.19 6.239-.91 2.59-1.36 5.488-1.36 8.693 0 3.181.45 6.068 1.36 8.659.93 2.591 2.33 4.659 4.19 6.204 1.89 1.523 4.25 2.284 7.09 2.284m58.34 9.887c-5.23 0-9.71-1.148-13.46-3.443-3.73-2.296-6.61-5.466-8.63-9.512q-3-6.102-3-14.045c0-5.318 1.02-10.012 3.07-14.08 2.04-4.09 4.93-7.272 8.66-9.545q5.625-3.443 13.29-3.443c4.25 0 8.02.784 11.29 2.352 3.29 1.545 5.92 3.739 7.87 6.58 1.96 2.817 3.07 6.113 3.34 9.886h-11.79c-.48-2.523-1.62-4.625-3.41-6.307-1.77-1.705-4.15-2.557-7.13-2.557-2.52 0-4.73.682-6.64 2.045q-2.865 2.012-4.47 5.796c-1.04 2.523-1.57 5.545-1.57 9.068 0 3.568.53 6.637 1.57 9.205 1.05 2.545 2.51 4.511 4.4 5.897 1.91 1.364 4.15 2.046 6.71 2.046 1.82 0 3.45-.341 4.88-1.023a9.86 9.86 0 0 0 3.65-3.034q1.455-1.977 2.01-4.807h11.79q-.435 5.557-3.27 9.853c-1.89 2.84-4.45 5.068-7.7 6.681q-4.875 2.387-11.46 2.387m55.41 0c-5.12 0-9.55-1.125-13.3-3.375s-6.66-5.398-8.72-9.443c-2.05-4.046-3.07-8.773-3.07-14.182s1.02-10.148 3.07-14.216c2.06-4.068 4.97-7.228 8.72-9.478s8.18-3.374 13.3-3.374q7.665 0 13.29 3.374t8.7 9.478c2.06 4.068 3.1 8.807 3.1 14.216s-1.04 10.136-3.1 14.182q-3.075 6.068-8.7 9.443t-13.29 3.375m.07-9.887c2.77 0 5.09-.761 6.95-2.284 1.86-1.545 3.25-3.613 4.16-6.204.93-2.591 1.4-5.478 1.4-8.659 0-3.205-.47-6.103-1.4-8.693-.91-2.614-2.3-4.694-4.16-6.24-1.86-1.545-4.18-2.317-6.95-2.317-2.84 0-5.21.772-7.09 2.318q-2.805 2.318-4.2 6.239c-.91 2.59-1.36 5.488-1.36 8.693 0 3.181.45 6.068 1.36 8.659q1.395 3.887 4.2 6.204c1.88 1.523 4.25 2.284 7.09 2.284m47.83-60.954V133h-12.34V63.182z"/></svg>