<svg xmlns="http://www.w3.org/2000/svg" width="1338" height="195" fill="none" viewBox="0 0 1338 195"><path stroke="#000" stroke-linecap="round" stroke-width="12" d="m25 97.9 67.9-68a24 24 0 0 1 34 0v0a24 24 0 0 1 0 34l-51.3 51.3m.7-.7 50.5-50.6a24 24 0 0 1 34 0l.3.4a24 24 0 0 1 0 34l-61.4 61.3a8 8 0 0 0 0 11.3l12.6 12.6"/><path stroke="#000" stroke-linecap="round" stroke-width="12" d="M109.9 47 59.6 97a24 24 0 0 0 0 34v0a24 24 0 0 0 34 0l50.2-50.2"/><path fill="#000" d="M223.9 63.2h15.5l20.7 50.6h.8l20.7-50.6h15.5V133H285V85h-.7L265 132.8h-9l-19.3-47.9h-.7V133h-12zM333.2 134q-7.7 0-13.3-3.4t-8.7-9.4T308 107q0-8 3-14.2 3.2-6 8.8-9.5 5.6-3.3 13.3-3.3t13.3 3.3 8.7 9.5 3 14.2-3 14.2-8.7 9.4-13.3 3.4m0-9.9q4.2 0 7-2.2 2.8-2.4 4.2-6.3 1.4-3.8 1.4-8.6t-1.4-8.7-4.2-6.2q-2.8-2.4-7-2.4t-7 2.4q-2.8 2.3-4.2 6.2t-1.4 8.7 1.4 8.6 4.2 6.3 7 2.2m55 9.8q-6.2 0-11-3.1-5-3.2-7.8-9.3-2.8-6-2.8-14.6t2.9-14.7 7.8-9.1 11-3.1q4.5 0 7.5 1.5 3 1.6 4.7 3.7 1.7 2.2 2.7 4.1h.5V63.2H416V133h-12.2v-8.2h-.7q-1 1.9-2.8 4t-4.8 3.6-7.4 1.5m3.4-10.1q4 0 6.7-2.1 2.8-2.2 4.2-6t1.4-8.9q0-5-1.4-8.8t-4.2-5.8q-2.7-2.1-6.7-2.1t-6.9 2.1-4.1 6-1.4 8.6q0 5 1.4 8.8t4.2 6 6.8 2.2m60.8 10.2q-7.9 0-13.6-3.2-5.7-3.4-8.8-9.4-3-6-3-14.3 0-8 3-14.2 3.1-6 8.7-9.5 5.5-3.4 13-3.4 4.9 0 9.2 1.5a21 21 0 0 1 7.6 4.8q3.4 3.2 5.3 8.2t1.9 12v3.7h-43v-8.3H464q0-3.6-1.6-6.3-1.5-2.8-4.2-4.4-2.6-1.6-6.2-1.6-3.8 0-6.6 1.8a13 13 0 0 0-4.5 4.8q-1.6 3-1.6 6.4v7.3q0 4.6 1.7 7.8t4.6 5 7 1.7q2.8 0 5-.7 2.1-.8 3.7-2.3t2.4-3.7l11.6 1.3q-1.1 4.5-4.2 8-3 3.3-7.8 5.2-4.7 1.8-10.8 1.8m46-70.8V133h-12.3V63.2zm96.9 23.5h-12.8q-.5-3.1-2-5.5A15 15 0 0 0 577 77q-2.2-1.7-5-2.5-2.8-1-6-1-5.7 0-10 3-4.5 2.8-7 8.3-2.4 5.4-2.4 13.3t2.4 13.5q2.6 5.4 7 8.2 4.3 2.8 10 2.8 3.1 0 5.8-.8 2.8-.9 5-2.5a15 15 0 0 0 3.7-4q1.5-2.4 2.1-5.5h12.8a28 28 0 0 1-3.1 9.4q-2.4 4.4-6.2 7.7t-9 5.2q-5 1.9-11.3 1.9-9.2 0-16.4-4.3T538 117.4t-4.2-19.3 4.2-19.3 11.5-12.3 16.3-4.3q5.8 0 10.9 1.7 5 1.6 8.9 4.8t6.4 7.7 3.4 10.3m33.9 47.3q-7.7 0-13.3-3.4t-8.8-9.4q-3-6-3-14.2 0-8 3-14.2 3.1-6 8.8-9.5 5.6-3.3 13.3-3.3t13.2 3.3q5.7 3.4 8.7 9.5 3.1 6.1 3.1 14.2t-3 14.2-8.8 9.4-13.2 3.4m0-9.9q4.2 0 7-2.2 2.8-2.4 4.1-6.3 1.4-3.8 1.4-8.6t-1.4-8.7q-1.3-4-4.1-6.2-2.8-2.4-7-2.4t-7 2.4-4.3 6.2q-1.3 3.9-1.3 8.7t1.3 8.6q1.4 4 4.2 6.3t7.1 2.2m47.9-21.8V133h-12.4V80.6h11.8v9h.6q1.8-4.5 5.8-7 4-2.6 9.8-2.6 5.5 0 9.5 2.3t6.3 6.7 2.2 10.7V133h-12.4v-31.4q0-5.3-2.7-8.2-2.7-3-7.5-3-3.2 0-5.7 1.4t-4 4-1.3 6.5m72.3-21.7v9.6h-30.1v-9.6zm-22.7-12.5H739v49.2q0 2.4.8 3.8t2 1.7 2.8.5q1.2 0 2.1-.2l1.5-.3 2.1 9.7-2.8.7q-1.8.4-4.4.5-4.7.2-8.4-1.4t-5.9-4.8q-2.1-3.3-2.1-8.2zm55.6 66q-7.9 0-13.6-3.3-5.7-3.4-8.8-9.4-3-6-3-14.3 0-8 3-14.2 3.1-6 8.7-9.5 5.6-3.4 13-3.4 4.9 0 9.2 1.5a21 21 0 0 1 7.6 4.8q3.4 3.2 5.3 8.2t1.9 12v3.7h-43v-8.3h31.2q0-3.6-1.6-6.3-1.5-2.8-4.2-4.4-2.6-1.6-6.2-1.6-3.8 0-6.6 1.8a13 13 0 0 0-4.5 4.8q-1.6 3-1.6 6.4v7.3q0 4.6 1.7 7.8t4.7 5 7 1.7q2.7 0 4.8-.7 2.2-.8 3.8-2.3t2.5-3.7L805 119q-1.1 4.5-4.2 8-3 3.3-7.8 5.2-4.7 1.8-10.8 1.8M825 80.6l10.6 19.4 10.7-19.4h13l-15.7 26.2 16 26.2h-13l-11-18.9-11 18.9h-13.1l16-26.2-15.6-26.2zm70 0v9.6h-30v-9.6zm-22.6-12.5h12.3v49.2q0 2.4.8 3.8t2 1.7 2.8.5q1.2 0 2.1-.2l1.5-.3 2.1 9.7-2.8.7q-1.8.4-4.5.5-4.6.2-8.3-1.4t-6-4.8q-2-3.3-2-8.2zm57.3 64.9V63.2H956q8 0 13.5 3t8.3 8.2 2.8 11.9-2.8 12q-2.8 5.1-8.4 8.1-5.5 3-13.6 3h-17.3V99H954q4.7 0 7.7-1.6t4.5-4.5 1.4-6.6-1.4-6.5-4.5-4.4q-3-1.7-7.7-1.7h-11.6V133zm61.3 0V80.6h12v8.8h.5q1.5-4.5 4.9-7t8-2.5h2.3l2.1.3v11.4q-.8-.3-2.5-.5l-3.2-.2q-3.5 0-6 1.4-2.7 1.5-4.3 4-1.5 2.6-1.5 6V133zm58.7 1q-7.7 0-13.3-3.4t-8.7-9.4q-3-6-3-14.2c0-8.2 1-10.1 3-14.2q3.1-6 8.7-9.5 5.6-3.3 13.3-3.3t13.3 3.3c5.6 3.3 6.7 5.4 8.7 9.5q3 6 3.1 14.2c.1 8.2-1 10.2-3.1 14.2q-3 6-8.7 9.4c-5.7 3.4-8.2 3.4-13.3 3.4m0-9.9q4.2 0 7-2.2 2.9-2.4 4.2-6.3 1.5-3.8 1.4-8.6 0-4.8-1.4-8.7-1.4-4-4.2-6.2-2.8-2.4-7-2.4t-7 2.4a14 14 0 0 0-4.2 6.2q-1.5 3.9-1.4 8.7 0 4.8 1.4 8.6a14 14 0 0 0 4.2 6.3 11 11 0 0 0 7 2.2m61.7-43.5v9.6h-30v-9.6zm-22.6-12.5h12.3v49.2q0 2.4.8 3.8.7 1.3 2 1.7 1.3.5 2.8.5 1.2 0 2.1-.2l1.5-.3 2 9.7a28 28 0 0 1-7.2 1.2q-4.6.1-8.3-1.4a13 13 0 0 1-6-4.8q-2-3.4-2-8.2zm55.2 66q-7.5 0-13.3-3.5-5.6-3.3-8.7-9.4-3-6-3-14.2c0-8.2 1-10.1 3-14.2q3.1-6 8.7-9.5 5.7-3.3 13.3-3.3t13.3 3.3 8.7 9.5 3.1 14.2c.1 8.2-1 10.2-3 14.2q-3.1 6-8.8 9.4-5.6 3.4-13.3 3.4m0-9.9q4.3 0 7-2.2 3-2.4 4.2-6.3 1.5-3.8 1.4-8.6 0-4.8-1.4-8.7-1.3-4-4.2-6.2a11 11 0 0 0-7-2.4q-4.2 0-7 2.4a14 14 0 0 0-4.2 6.2q-1.4 3.9-1.4 8.7t1.4 8.6a14 14 0 0 0 4.2 6.3 11 11 0 0 0 7 2.2m58.4 10q-7.8 0-13.4-3.5a23 23 0 0 1-8.7-9.5q-3-6.1-3-14t3.1-14.2q3-6 8.7-9.5 5.6-3.4 13.3-3.4 6.4 0 11.2 2.3a19 19 0 0 1 11.3 16.5H1213q-.8-3.8-3.4-6.3a10 10 0 0 0-7.2-2.6q-3.7 0-6.6 2t-4.5 5.9-1.6 9 1.6 9.2q1.5 3.8 4.4 6 3 2 6.7 2 2.7 0 5-1a10 10 0 0 0 3.6-3q1.4-2 2-4.9h11.8q-.5 5.6-3.3 9.9-2.9 4.2-7.7 6.6t-11.5 2.4m55.4 0q-7.5 0-13.3-3.4c-5.8-3.4-6.6-5.3-8.7-9.4q-3-6-3-14.2c0-8.2 1-10.1 3-14.2q3-6 8.7-9.5c5.7-3.5 8.2-3.3 13.3-3.3q7.7 0 13.3 3.3t8.7 9.5q3 6 3.1 14.2c.1 8.2-1 10.2-3 14.2q-3.1 6-8.8 9.4t-13.3 3.4m.1-9.9q4.2 0 7-2.2 2.7-2.4 4.1-6.3 1.5-3.8 1.4-8.6 0-4.8-1.4-8.7-1.4-4-4.1-6.2a11 11 0 0 0-7-2.4q-4.2 0-7 2.4-2.9 2.3-4.3 6.2t-1.3 8.7 1.3 8.6 4.2 6.3a11 11 0 0 0 7.1 2.2m47.8-61V133h-12.3V63.2z"/></svg>